<svg xmlns="http://www.w3.org/2000/svg" xmlns:xlink="http://www.w3.org/1999/xlink" version="1.1" id="Layer_1" x="0" y="0" width="894" height="306" viewBox="24.5 72.62 894 306" enable-background="new 24.5 72.618 894 306" xml:space="preserve">
  <path id="FundoBoia" fill="#125E4A" d="M98.41 264.47l-35.24 35.24 -10.69-10.69c-34.99-34.99-34.99-91.72 0-126.71l10.69-10.69 35.24 35.24C86.66 211.32 86.66 240.01 98.41 264.47zM179.14 136.08V72.72c-23.41 0-45.84 8.75-63.33 26.24L105.13 109.65l35.22 35.24C152.58 139.02 166.7 136.08 179.14 136.08zM140.36 306.45l-35.23 35.24 10.68 10.69c17.49 17.49 39.93 26.24 63.34 26.24v-63.36C166.7 315.26 152.59 312.32 140.36 306.45zM217.97 144.89l35.25-35.24 -10.71-10.69c-17.49-17.49-40.69-26.24-63.37-26.24v63.36C191.58 136.08 205.74 139.02 217.97 144.89zM253.23 341.68l-35.26-35.24c-12.23 5.88-26.39 8.81-38.83 8.81v63.36c22.68 0 45.88-8.75 63.38-26.24L253.23 341.68zM259.96 264.47l35.24 35.24 10.69-10.69c34.99-34.99 34.99-91.72 0-126.71l-10.69-10.69 -35.24 35.24C271.71 211.32 271.71 240.01 259.96 264.47z"/>
  <path id="EfeiteBoia" fill="#AFDFAA" d="M140.38 306.45l-35.24 35.24L63.17 299.71l35.24-35.24c4.26 8.87 10.07 17.19 17.42 24.55C123.19 296.38 131.51 302.18 140.38 306.45zM115.83 162.31c7.36-7.35 15.68-13.16 24.55-17.42l-35.24-35.24 -41.97 41.97 35.24 35.24C102.67 177.99 108.47 169.67 115.83 162.31zM242.54 162.31c7.36 7.36 13.16 15.68 17.42 24.55l35.24-35.24 -12.9-12.9 -20.62-20.62 -8.45-8.45 -35.24 35.24C226.86 149.15 235.18 154.96 242.54 162.31zM242.54 289.02c-7.35 7.36-15.68 13.16-24.55 17.42l35.24 35.24 41.97-41.97 -35.24-35.24C255.7 273.35 249.9 281.67 242.54 289.02z"/>
  <path id="Transparencia" opacity="0.1" fill="#FFFFFF" enable-background="new    " d="M179.14 136.08V72.72c22.68 0 45.88 8.75 63.38 26.24l10.7 10.69 -35.26 35.24C205.73 139.02 191.58 136.08 179.14 136.08zM253.23 341.68l-35.26-35.24c-12.23 5.88-26.39 8.81-38.83 8.81v63.36c22.68 0 45.88-8.75 63.38-26.24L253.23 341.68zM259.96 264.47l35.24 35.24 10.69-10.69c34.99-34.99 34.99-91.72 0-126.71l-10.69-10.69 -35.24 35.24C271.71 211.32 271.71 240.01 259.96 264.47zM242.54 162.31c7.36 7.36 13.16 15.68 17.42 24.55l35.24-35.24 -12.9-12.9 -20.62-20.62 -8.45-8.45 -35.24 35.24C226.86 149.15 235.18 154.96 242.54 162.31zM242.54 289.02c-7.35 7.36-15.68 13.16-24.55 17.42l35.24 35.24 41.97-41.97 -35.24-35.24C255.7 273.35 249.9 281.67 242.54 289.02z"/>
  <path fill="#125E4A" d="M107.23 246.16c5.9 3.55 10.92 6.03 15.04 7.46 4.12 1.43 8.14 2.14 12.06 2.14 3.97 0 7.15-0.85 9.56-2.56 2.4-1.71 3.6-3.9 3.6-6.58 0-3.85-4.32-8.16-12.83-12.97 -1.36-0.77-2.42-1.38-3.17-1.81 -2.59-1.43-3.89-2.14-6.48-3.57 -6.3-3.5-10.97-7.45-14.01-11.86 -3.04-4.41-4.53-9.44-4.56-14.98 -0.05-7.19 3.14-14.04 8.72-18.61 6.29-5.15 14.52-7.31 22.54-7.26 3.38 0.02 7.25 0.39 11.22 1.17 3.97 0.78 8.27 1.99 13.4 3.63 0 7.35 0 14.7 0 22.05 -5.12-2.85-9.19-5.06-13.33-6.61 -4.14-1.56-7.76-2.34-10.67-2.34 -3.22 0-5.8 0.68-7.65 2.05 -1.85 1.36-2.8 3.21-2.8 5.55 0 1.64 0.54 3.18 1.64 4.6 1.1 1.43 2.75 2.73 4.95 3.89 4.5 2.44 6.74 3.65 11.24 6.09 6.86 3.64 14.19 8 18.94 14.13 3.25 4.21 4.82 9.48 4.86 15.36 0.05 8.39-3.16 16.61-9.55 22.21 -6.95 6.09-16.3 8.52-25.36 8.46 -3.55-0.02-7.45-0.37-11.63-1.1 -4.19-0.73-8.79-1.88-13.81-3.44C108.51 262.88 107.87 254.52 107.23 246.16z"/>
  <path fill="#125E4A" d="M186.46 272.49c0-30.73 0-62.19 0-93.65 8.05 0 16.13 0 24.35 0 7.58 0 13.6 0.48 18.05 1.56 4.45 1.08 8.4 2.92 11.83 5.42 3.51 2.56 6.33 5.72 8.29 9.55 1.96 3.83 2.91 7.9 2.94 12.15 0.06 8.69-3.45 17.14-10.34 22.62 -8.28 6.57-18.17 8.05-28.06 8.36 -1.19 0.04-2.1-0.01-2.72-0.03 -0.62-0.02-0.93-0.05-1.66-0.1 0 11.46 0 23.14 0 34.12C201.09 272.49 193.78 272.49 186.46 272.49zM212.13 195.67c-1.24 0-1.53 0-2.99 0 0 8.78 0 16.83 0 25.61 1.46 0 2.38 0 4.05 0 5.78 0 10.18-1.2 13.23-3.38 3.04-2.18 4.56-5.38 4.56-9.48 0-4.28-1.5-7.59-4.5-9.58C223.48 196.84 218.7 195.67 212.13 195.67z"/>
  <rect x="185" y="178.11" opacity="0.13" fill="#FFFFFF" enable-background="new    " width="68.77" height="96.58"/>
  <path fill="#125E4A" d="M371.3 323.68v-183.57h45.85v67.35h74.93v-67.35h45.58v183.57h-45.58v-76.97h-74.93v76.97H371.3z"/>
  <path fill="#125E4A" d="M689.25 282.91l-4.69 35.07c-8.22 3.72-16.31 6.46-24.26 8.23 -7.95 1.77-15.99 2.66-24.13 2.66 -20.11 0-36.33-5.46-48.66-16.4 -12.33-10.93-18.5-25.17-18.5-42.73 0-18.31 6.75-33.78 20.24-46.4 13.49-12.61 29.89-18.93 49.19-18.93 16.53 0 30.09 4.62 40.68 13.86 10.59 9.24 15.89 21.21 15.89 35.89 0 2.28-0.18 5.91-0.54 10.89l-0.13 0.76 -3.76 5.19 -82.44 2.15c0.62 7.68 4.02 13.91 10.19 18.67 6.16 4.77 13.94 7.15 23.32 7.15 6.61 0 13.96-1.35 22.05-4.05C671.8 292.24 680.31 288.23 689.25 282.91zM609.09 255.94l52.41-1.52v-1.77c0-5.99-2.23-10.91-6.7-14.75 -4.47-3.84-10.1-5.76-16.89-5.76 -7.59 0-13.94 2.09-19.03 6.27C613.78 242.59 610.52 248.43 609.09 255.94z"/>
  <path fill="#125E4A" d="M760.56 323.68h-42.49V143.02l42.49-5.44V323.68z"/>
  <path fill="#125E4A" d="M792.19 378.62V209.61h41.96c4.2-1.52 8.35-2.64 12.46-3.35 4.11-0.72 8.31-1.07 12.6-1.07 17.43 0 31.79 5.7 43.09 17.09 11.3 11.4 16.96 26.08 16.96 44.06 0 18.65-6.1 33.74-18.3 45.26 -12.2 11.52-28.13 17.28-47.79 17.28 -2.59 0-5.36-0.15-8.31-0.44 -2.95-0.29-6.61-0.74-10.99-1.33v44.82L792.19 378.62zM834.15 297.47c2.95 0.76 5.49 1.31 7.64 1.65 2.15 0.34 4.11 0.51 5.9 0.51 8.13 0 14.92-3.16 20.38-9.49 5.45-6.33 8.18-14.35 8.18-24.05 0-9.03-2.48-16.5-7.44-22.41 -4.96-5.91-11.1-8.86-18.43-8.86 -2.24 0-4.61 0.23-7.1 0.7 -2.5 0.47-5.54 1.25-9.11 2.34L834.15 297.47 834.15 297.47z"/>
  <path fill="#053024" stroke="#06D96A" stroke-miterlimit="10" d="M363.27 318.25V134.68h45.84v67.35h74.93v-67.35h45.58v183.57h-45.57V241.28h-74.93v76.97L363.27 318.25 363.27 318.25z"/>
  <path fill="#053024" stroke="#06D96A" stroke-miterlimit="10" d="M681.22 277.49l-4.69 35.07c-8.22 3.71-16.31 6.46-24.26 8.23 -7.95 1.77-16 2.66-24.13 2.66 -20.11 0-36.33-5.46-48.66-16.39 -12.33-10.93-18.5-25.17-18.5-42.73 0-18.31 6.75-33.78 20.24-46.4 13.49-12.62 29.89-18.93 49.19-18.93 16.53 0 30.09 4.62 40.68 13.86 10.59 9.24 15.89 21.21 15.89 35.89 0 2.28-0.18 5.91-0.54 10.89l-0.13 0.76 -3.75 5.19 -82.44 2.15c0.62 7.68 4.02 13.91 10.19 18.67 6.17 4.77 13.94 7.15 23.33 7.15 6.61 0 13.96-1.35 22.05-4.05C663.77 286.82 672.28 282.8 681.22 277.49zM601.06 250.52l52.41-1.52v-1.77c0-5.99-2.23-10.91-6.7-14.75 -4.47-3.84-10.1-5.76-16.89-5.76 -7.6 0-13.94 2.09-19.04 6.27C605.75 237.17 602.49 243.01 601.06 250.52z"/>
  <path fill="#053024" stroke="#06D96A" stroke-miterlimit="10" d="M752.53 318.25h-42.49V137.6l42.49-5.44V318.25L752.53 318.25z"/>
  <path fill="#053024" stroke="#06D96A" stroke-miterlimit="10" d="M784.16 373.2v-169.01h41.95c4.2-1.52 8.36-2.64 12.47-3.35 4.11-0.72 8.31-1.08 12.6-1.08 17.43 0 31.79 5.7 43.1 17.09 11.3 11.4 16.96 26.08 16.96 44.06 0 18.65-6.1 33.74-18.3 45.26 -12.2 11.52-28.12 17.28-47.78 17.28 -2.59 0-5.36-0.15-8.31-0.44 -2.95-0.3-6.61-0.74-10.99-1.33v44.82L784.16 373.2zM826.12 292.05c2.95 0.76 5.5 1.31 7.64 1.65 2.15 0.34 4.11 0.51 5.9 0.51 8.13 0 14.92-3.17 20.37-9.49 5.45-6.33 8.18-14.35 8.18-24.05 0-9.03-2.48-16.5-7.44-22.41 -4.96-5.91-11.1-8.86-18.43-8.86 -2.23 0-4.6 0.24-7.1 0.7 -2.5 0.47-5.54 1.25-9.11 2.34V292.05L826.12 292.05z"/>
</svg>
