<svg xmlns="http://www.w3.org/2000/svg" xmlns:xlink="http://www.w3.org/1999/xlink" version="1.1" id="Layer_1" x="0px" y="0px" width="894px" height="306px" viewBox="24.5 72.618 894 306" enable-background="new 24.5 72.618 894 306" xml:space="preserve">
  <g>
    <g>
      <g>
        <path id="FundoBoia" fill="#125E4A" d="M98.407 264.472l-35.242 35.24 -10.689-10.689c-34.99-34.99-34.99-91.721 0-126.709l10.689-10.692 35.242 35.243C86.657 211.323 86.657 240.009 98.407 264.472zM179.142 136.078V72.717c-23.412 0.001-45.841 8.749-63.334 26.242L105.13 109.65l35.224 35.24C152.584 139.016 166.704 136.078 179.142 136.078zM140.357 306.445l-35.227 35.238 10.675 10.693c17.494 17.494 39.926 26.24 63.338 26.24v-63.361C166.704 315.257 152.589 312.318 140.357 306.445zM217.968 144.889l35.253-35.24 -10.708-10.691c-17.494-17.495-40.69-26.241-63.371-26.241v63.361C191.58 136.078 205.737 139.016 217.968 144.889zM253.23 341.683l-35.261-35.238c-12.231 5.875-26.388 8.813-38.826 8.813v63.361c22.68 0 45.88-8.748 63.375-26.242L253.23 341.683zM259.962 264.472l35.24 35.24 10.691-10.689c34.987-34.988 34.988-91.723 0-126.709l-10.691-10.692 -35.24 35.243C271.71 211.323 271.71 240.009 259.962 264.472z"/>
        <path id="EfeiteBoia" fill="#AFDFAA" d="M140.38 306.445l-35.241 35.238L63.166 299.71l35.242-35.238c4.262 8.871 10.065 17.193 17.421 24.551C123.186 296.378 131.506 302.181 140.38 306.445zM115.828 162.312c7.358-7.355 15.678-13.159 24.552-17.422l-35.241-35.24 -41.973 41.973 35.242 35.241C102.67 177.988 108.473 169.669 115.828 162.312zM242.538 162.312c7.358 7.355 13.161 15.676 17.423 24.551l35.24-35.242 -12.9-12.904 -20.624-20.621 -8.447-8.446 -35.24 35.24C226.863 149.154 235.184 154.956 242.538 162.312zM242.538 289.023c-7.354 7.355-15.676 13.158-24.549 17.422l35.241 35.238 41.971-41.973 -35.24-35.238C255.7 273.347 249.896 281.667 242.538 289.023z"/>
        <path id="Transparencia" opacity="0.1" fill="#FFFFFF" enable-background="new    " d="M179.142 136.078V72.717c22.68 0 45.88 8.746 63.375 26.242l10.703 10.691 -35.256 35.24C205.734 139.016 191.58 136.078 179.142 136.078zM253.23 341.683l-35.261-35.238c-12.231 5.875-26.388 8.813-38.826 8.813v63.361c22.68 0 45.88-8.748 63.375-26.242L253.23 341.683zM259.962 264.472l35.24 35.24 10.691-10.689c34.987-34.988 34.988-91.723 0-126.709l-10.691-10.692 -35.24 35.243C271.71 211.323 271.71 240.009 259.962 264.472zM242.538 162.312c7.358 7.355 13.161 15.676 17.423 24.551l35.24-35.242 -12.9-12.904 -20.624-20.621 -8.447-8.446 -35.24 35.24C226.863 149.154 235.184 154.956 242.538 162.312zM242.538 289.023c-7.354 7.355-15.676 13.158-24.549 17.422l35.241 35.238 41.971-41.973 -35.24-35.238C255.7 273.347 249.896 281.667 242.538 289.023z"/>
      </g>
      <g>
        <g>
          <g>
            <path fill="#125E4A" d="M107.234 246.156c5.904 3.545 10.915 6.027 15.035 7.455 4.118 1.428 8.139 2.139 12.062 2.139 3.968 0 7.151-0.85 9.556-2.561 2.402-1.707 3.603-3.9 3.603-6.58 0-3.85-4.318-8.16-12.829-12.969 -1.365-0.771-2.425-1.383-3.173-1.813 -2.593-1.428-3.886-2.139-6.476-3.566 -6.302-3.498-10.971-7.455-14.01-11.861 -3.04-4.408-4.525-9.436-4.561-14.979 -0.046-7.193 3.143-14.045 8.724-18.609 6.294-5.148 14.52-7.309 22.538-7.262 3.376 0.021 7.25 0.391 11.218 1.168 3.968 0.777 8.273 1.988 13.395 3.631 0 7.348 0 14.695 0 22.045 -5.122-2.854-9.186-5.061-13.329-6.615 -4.144-1.559-7.757-2.336-10.667-2.336 -3.219 0-5.797 0.682-7.648 2.045 -1.851 1.359-2.798 3.211-2.798 5.545 0 1.643 0.541 3.178 1.642 4.604 1.099 1.428 2.748 2.725 4.953 3.893 4.495 2.438 6.742 3.654 11.239 6.092 6.86 3.641 14.192 7.998 18.937 14.133 3.254 4.205 4.82 9.477 4.858 15.361 0.052 8.391-3.158 16.605-9.55 22.209 -6.955 6.094-16.3 8.516-25.357 8.461 -3.548-0.025-7.448-0.369-11.632-1.104 -4.187-0.734-8.79-1.881-13.812-3.438C108.512 262.882 107.872 254.515 107.234 246.156z"/>
            <path fill="#125E4A" d="M186.458 272.493c0-30.73 0-62.189 0-93.65 8.048 0 16.132 0 24.351 0 7.581 0 13.603 0.482 18.052 1.564 4.449 1.08 8.399 2.92 11.828 5.416 3.514 2.559 6.333 5.721 8.294 9.549 1.96 3.826 2.912 7.902 2.942 12.152 0.06 8.686-3.448 17.143-10.343 22.621 -8.281 6.574-18.171 8.053-28.062 8.357 -1.195 0.037-2.104-0.012-2.719-0.033 -0.618-0.023-0.93-0.055-1.662-0.098 0 11.455 0 23.143 0 34.119C201.091 272.493 193.775 272.493 186.458 272.493zM212.131 195.671c-1.243 0-1.529 0-2.992 0 0 8.779 0 16.828 0 25.607 1.463 0 2.384 0 4.05 0 5.775 0 10.184-1.199 13.226-3.381 3.043-2.182 4.562-5.377 4.562-9.484 0-4.281-1.498-7.594-4.496-9.582C223.482 196.843 218.7 195.671 212.131 195.671z"/>
          </g>
        </g>
        <rect x="184.995" y="178.113" opacity="0.13" fill="#FFFFFF" enable-background="new    " width="68.773" height="96.576"/>
      </g>
    </g>
    <g>
      <g>
        <path fill="#125E4A" d="M371.298 323.675v-183.57h45.845v67.352h74.929v-67.352h45.576v183.57h-45.576v-76.974h-74.929v76.974H371.298z"/>
        <path fill="#125E4A" d="M689.248 282.908l-4.691 35.069c-8.223 3.715-16.309 6.457-24.261 8.229 -7.955 1.772-15.995 2.658-24.127 2.658 -20.107 0-36.326-5.464-48.657-16.396 -12.334-10.93-18.499-25.171-18.499-42.729 0-18.313 6.747-33.779 20.241-46.398 13.491-12.615 29.891-18.926 49.193-18.926 16.53 0 30.093 4.621 40.682 13.863 10.591 9.241 15.885 21.206 15.885 35.892 0 2.279-0.18 5.906-0.536 10.887l-0.133 0.759 -3.756 5.192 -82.436 2.15c0.623 7.682 4.021 13.907 10.188 18.674 6.164 4.769 13.938 7.151 23.323 7.151 6.611 0 13.96-1.349 22.049-4.048C671.799 292.236 680.312 288.227 689.248 282.908zM609.09 255.944l52.412-1.52v-1.771c0-5.994-2.235-10.909-6.702-14.751 -4.47-3.838-10.101-5.759-16.891-5.759 -7.594 0-13.939 2.089-19.034 6.267C613.78 242.588 610.52 248.433 609.09 255.944z"/>
        <path fill="#125E4A" d="M760.56 323.675h-42.491V143.016l42.491-5.443V323.675z"/>
        <path fill="#125E4A" d="M792.194 378.618V209.608h41.956c4.199-1.52 8.354-2.636 12.463-3.354 4.111-0.717 8.313-1.074 12.602-1.074 17.427 0 31.789 5.696 43.094 17.088 11.304 11.396 16.958 26.081 16.958 44.06 0 18.653-6.099 33.738-18.296 45.259 -12.198 11.521-28.129 17.281-47.789 17.281 -2.592 0-5.358-0.149-8.31-0.444 -2.95-0.294-6.614-0.739-10.991-1.327v44.817L792.194 378.618zM834.15 297.468c2.948 0.759 5.492 1.311 7.638 1.646 2.147 0.339 4.111 0.507 5.899 0.507 8.133 0 14.923-3.164 20.376-9.494 5.447-6.329 8.176-14.349 8.176-24.054 0-9.03-2.48-16.501-7.439-22.409 -4.959-5.906-11.104-8.862-18.431-8.862 -2.236 0-4.605 0.234-7.104 0.698 -2.502 0.465-5.542 1.246-9.113 2.342L834.15 297.468 834.15 297.468z"/>
      </g>
      <g>
        <path fill="#FFFFFF" stroke="#06D96A" stroke-miterlimit="10" d="M363.267 318.252V134.684h45.844v67.351h74.93v-67.351h45.575v183.569h-45.575V241.28h-74.93v76.974L363.267 318.252 363.267 318.252z"/>
        <path fill="#FFFFFF" stroke="#06D96A" stroke-miterlimit="10" d="M681.218 277.49l-4.69 35.066c-8.222 3.714-16.31 6.457-24.262 8.229 -7.953 1.772-15.997 2.658-24.126 2.658 -20.109 0-36.329-5.463-48.657-16.395 -12.332-10.93-18.5-25.172-18.5-42.729 0-18.313 6.748-33.78 20.241-46.397 13.492-12.617 29.892-18.927 49.194-18.927 16.53 0 30.094 4.62 40.681 13.863 10.592 9.24 15.886 21.205 15.886 35.89 0 2.279-0.179 5.908-0.538 10.889l-0.132 0.76 -3.754 5.189 -82.437 2.151c0.622 7.683 4.022 13.909 10.186 18.674 6.168 4.768 13.94 7.153 23.326 7.153 6.609 0 13.961-1.351 22.05-4.05C663.77 286.815 672.282 282.804 681.218 277.49zM601.062 250.522l52.411-1.52v-1.771c0-5.994-2.234-10.907-6.703-14.749 -4.469-3.84-10.099-5.76-16.889-5.76 -7.596 0-13.94 2.088-19.037 6.267C605.751 237.167 602.49 243.012 601.062 250.522z"/>
        <path fill="#FFFFFF" stroke="#06D96A" stroke-miterlimit="10" d="M752.53 318.252h-42.493V137.595l42.493-5.443V318.252L752.53 318.252z"/>
        <path fill="#FFFFFF" stroke="#06D96A" stroke-miterlimit="10" d="M784.164 373.196v-169.01h41.954c4.201-1.518 8.356-2.637 12.465-3.354 4.112-0.718 8.314-1.076 12.602-1.076 17.427 0 31.79 5.698 43.095 17.09 11.304 11.395 16.958 26.079 16.958 44.058 0 18.654-6.1 33.739-18.299 45.261 -12.197 11.521-28.125 17.279-47.785 17.279 -2.593 0-5.361-0.148-8.313-0.443 -2.947-0.296-6.613-0.739-10.988-1.328v44.815L784.164 373.196zM826.119 292.045c2.95 0.761 5.497 1.311 7.639 1.646 2.146 0.339 4.111 0.508 5.9 0.508 8.13 0 14.922-3.166 20.374-9.494 5.449-6.331 8.177-14.35 8.177-24.054 0-9.03-2.479-16.501-7.44-22.407 -4.958-5.909-11.102-8.865-18.431-8.865 -2.234 0-4.604 0.235-7.104 0.697 -2.503 0.466-5.541 1.248-9.114 2.343V292.045L826.119 292.045z"/>
      </g>
    </g>
  </g>
</svg>
