<svg xmlns="http://www.w3.org/2000/svg" xmlns:xlink="http://www.w3.org/1999/xlink" version="1.1" id="Layer_1" x="0" y="0" width="606.33" height="210.5" viewBox="0 0 606.33 210.5" enable-background="new 0 0 606.333 210.5" xml:space="preserve"><polygon fill-rule="evenodd" clip-rule="evenodd" fill="#54A256" points="111.29 211.1 166.79 170.78 222.28 130.46 201.08 65.23 179.89 -0.01 111.29 -0.01 42.7 -0.01 21.5 65.23 0.31 130.46 55.8 170.78 "/><polygon fill-rule="evenodd" clip-rule="evenodd" fill="#54A256" points="111.29 211.1 166.79 170.78 222.28 130.46 201.08 65.23 179.89 -0.01 111.29 -0.01 42.7 -0.01 21.5 65.23 0.31 130.46 55.8 170.78 "/><polygon fill-rule="evenodd" clip-rule="evenodd" fill="#73B780" points="111.29 191.73 156.6 158.81 201.92 125.89 184.61 72.63 167.3 19.36 111.29 19.36 "/><path fill-rule="evenodd" clip-rule="evenodd" fill="#FFFFFF" d="M145.91 129.72v-17.48c2.67-0.8 5.01-2.43 7.01-4.91 2.97-3.64 4.44-8.28 4.44-13.87 0-5.21-1.35-9.53-4.04-12.95 -2.08-2.64-4.55-4.25-7.41-4.85V58.38c0.74-0.04 1.48-0.06 2.22-0.06 9.48 0 17.32 3.3 23.48 9.86 6.16 6.59 9.26 15.07 9.26 25.45 0 10.75-3.32 19.49-9.98 26.12C164.47 126.19 156.13 129.5 145.91 129.72zM115.91 94.74c2.9 4.55 4.35 9.82 4.35 15.83 0 6.63-1.45 12.46-4.35 17.46v29.71l18.4-3.13v-25.9c2.4 0.35 4.39 0.6 5.99 0.77 1.62 0.18 3.12 0.25 4.54 0.25 0.36 0 0.72 0 1.07-0.01v-17.48c-1.28 0.39-2.65 0.58-4.09 0.58 -0.97 0-2.04-0.1-3.22-0.3 -1.15-0.2-2.55-0.5-4.14-0.95V77.13c1.95-0.62 3.59-1.07 4.97-1.35 1.35-0.27 2.65-0.4 3.87-0.4 0.91 0 1.78 0.09 2.62 0.26V58.38c-1.58 0.09-3.13 0.27-4.67 0.56 -2.24 0.4-4.49 1.05-6.78 1.92h-18.55V94.74zM51.4 111.77c6.51 3.99 12.05 6.76 16.62 8.38 4.54 1.6 8.98 2.4 13.32 2.4 4.37 0 7.88-0.97 10.55-2.89 2.65-1.92 3.97-4.39 3.97-7.41 0-4.32-4.72-9.21-14.17-14.6 -1.52-0.87-2.69-1.57-3.52-2.04l-7.16-4.04c-6.96-3.94-12.13-8.41-15.47-13.37 -3.37-4.96-5.04-10.6-5.04-16.89 0-8.53 3.22-15.52 9.65-20.98 6.41-5.46 14.72-8.18 24.9-8.18 3.77 0 7.83 0.45 12.2 1.32 4.39 0.87 9.26 2.25 14.62 4.09v24.82c-5.12-3.19-9.95-5.66-14.55-7.41 -4.59-1.74-8.48-2.62-11.7-2.62 -3.57 0-6.36 0.77-8.41 2.3 -2.04 1.52-3.07 3.62-3.07 6.24 0 1.85 0.6 3.57 1.82 5.17 1.22 1.62 3.05 3.07 5.49 4.39l12.42 6.86c10.4 5.76 17.39 11.08 20.98 15.94 0.36 0.5 0.71 1 1.04 1.51V60.87h-4.35v97.6l4.35-0.74v-29.7c-1.61 2.79-3.68 5.32-6.2 7.59 -7.06 6.36-16.39 9.53-28.04 9.53 -3.94 0-8.23-0.42-12.87-1.25 -4.61-0.82-9.73-2.12-15.27-3.87L51.4 111.77z"/><defs><path id="SVGID_1_" d="M145.91 129.72v-17.48c2.67-0.8 5.01-2.43 7.01-4.91 2.97-3.64 4.44-8.28 4.44-13.87 0-5.21-1.35-9.53-4.04-12.95 -2.08-2.64-4.55-4.25-7.41-4.85V58.38c0.74-0.04 1.48-0.06 2.22-0.06 9.48 0 17.32 3.3 23.48 9.86 6.16 6.59 9.26 15.07 9.26 25.45 0 10.75-3.32 19.49-9.98 26.12C164.47 126.19 156.13 129.5 145.91 129.72zM115.91 94.74c2.9 4.55 4.35 9.82 4.35 15.83 0 6.63-1.45 12.46-4.35 17.46v29.71l18.4-3.13v-25.9c2.4 0.35 4.39 0.6 5.99 0.77 1.62 0.18 3.12 0.25 4.54 0.25 0.36 0 0.72 0 1.07-0.01v-17.48c-1.28 0.39-2.65 0.58-4.09 0.58 -0.97 0-2.04-0.1-3.22-0.3 -1.15-0.2-2.55-0.5-4.14-0.95V77.13c1.95-0.62 3.59-1.07 4.97-1.35 1.35-0.27 2.65-0.4 3.87-0.4 0.91 0 1.78 0.09 2.62 0.26V58.38c-1.58 0.09-3.13 0.27-4.67 0.56 -2.24 0.4-4.49 1.05-6.78 1.92h-18.55V94.74zM51.4 111.77c6.51 3.99 12.05 6.76 16.62 8.38 4.54 1.6 8.98 2.4 13.32 2.4 4.37 0 7.88-0.97 10.55-2.89 2.65-1.92 3.97-4.39 3.97-7.41 0-4.32-4.72-9.21-14.17-14.6 -1.52-0.87-2.69-1.57-3.52-2.04l-7.16-4.04c-6.96-3.94-12.13-8.41-15.47-13.37 -3.37-4.96-5.04-10.6-5.04-16.89 0-8.53 3.22-15.52 9.65-20.98 6.41-5.46 14.72-8.18 24.9-8.18 3.77 0 7.83 0.45 12.2 1.32 4.39 0.87 9.26 2.25 14.62 4.09v24.82c-5.12-3.19-9.95-5.66-14.55-7.41 -4.59-1.74-8.48-2.62-11.7-2.62 -3.57 0-6.36 0.77-8.41 2.3 -2.04 1.52-3.07 3.62-3.07 6.24 0 1.85 0.6 3.57 1.82 5.17 1.22 1.62 3.05 3.07 5.49 4.39l12.42 6.86c10.4 5.76 17.39 11.08 20.98 15.94 0.36 0.5 0.71 1 1.04 1.51V60.87h-4.35v97.6l4.35-0.74v-29.7c-1.61 2.79-3.68 5.32-6.2 7.59 -7.06 6.36-16.39 9.53-28.04 9.53 -3.94 0-8.23-0.42-12.87-1.25 -4.61-0.82-9.73-2.12-15.27-3.87L51.4 111.77z"/></defs><clipPath id="SVGID_2_"><use xlink:href="#SVGID_1_" overflow="visible"/></clipPath><g clip-path="url(#SVGID_2_)"><polygon fill-rule="evenodd" clip-rule="evenodd" fill="#E6E6E7" points="111.7 182.76 70.61 152.9 29.51 123.04 45.21 74.74 60.91 26.43 111.7 26.43 "/></g><path fill="#151F17" d="M246.78 162.87V35.18h30.12v46.85h49.23V35.18h29.94v127.69h-29.94v-53.54h-49.23v53.54H246.78z"/><path fill="#151F17" d="M455.66 134.51l-3.08 24.39c-5.4 2.58-10.71 4.49-15.94 5.72 -5.23 1.23-10.51 1.85-15.85 1.85 -13.21 0-23.86-3.8-31.97-11.4 -8.1-7.6-12.15-17.51-12.15-29.72 0-12.74 4.43-23.5 13.3-32.27 8.86-8.78 19.64-13.16 32.32-13.16 10.86 0 19.77 3.21 26.73 9.64 6.96 6.43 10.44 14.75 10.44 24.97 0 1.59-0.12 4.11-0.35 7.57l-0.09 0.53 -2.47 3.61 -54.16 1.5c0.41 5.34 2.64 9.67 6.69 12.99 4.05 3.32 9.16 4.97 15.32 4.97 4.34 0 9.17-0.94 14.49-2.82C444.19 141 449.78 138.21 455.66 134.51zM403 115.75l34.43-1.06v-1.23c0-4.17-1.47-7.59-4.4-10.26 -2.94-2.67-6.63-4.01-11.1-4.01 -4.99 0-9.16 1.45-12.5 4.36C406.08 106.46 403.93 110.53 403 115.75z"/><path fill="#151F17" d="M502.5 162.87h-27.91V37.2l27.92-3.79V162.87z"/><path fill="#151F17" d="M523.28 201.08V83.52h27.56c2.76-1.06 5.49-1.83 8.19-2.33 2.7-0.5 5.46-0.75 8.28-0.75 11.45 0 20.88 3.96 28.31 11.89 7.43 7.93 11.14 18.14 11.14 30.65 0 12.98-4.01 23.47-12.02 31.48 -8.01 8.01-18.48 12.02-31.39 12.02 -1.7 0-3.52-0.1-5.46-0.31 -1.94-0.21-4.34-0.51-7.22-0.92v31.17L523.28 201.08zM550.85 144.64c1.94 0.53 3.61 0.91 5.02 1.15 1.41 0.24 2.7 0.35 3.88 0.35 5.34 0 9.8-2.2 13.39-6.6 3.58-4.4 5.37-9.98 5.37-16.73 0-6.28-1.63-11.48-4.89-15.59 -3.26-4.11-7.29-6.16-12.11-6.16 -1.47 0-3.02 0.16-4.67 0.48 -1.64 0.32-3.64 0.87-5.99 1.63V144.64z"/><path fill="#54A256" d="M244.62 160.71V33.02h30.12v46.85h49.23V33.02h29.94v127.69h-29.94v-53.54h-49.23v53.54H244.62z"/><path fill="#54A256" d="M453.5 132.35l-3.08 24.39c-5.4 2.58-10.71 4.49-15.94 5.72 -5.23 1.23-10.51 1.85-15.85 1.85 -13.21 0-23.86-3.8-31.97-11.4 -8.1-7.6-12.15-17.51-12.15-29.72 0-12.74 4.43-23.5 13.3-32.27 8.86-8.78 19.64-13.16 32.32-13.16 10.86 0 19.77 3.21 26.73 9.64 6.96 6.43 10.44 14.75 10.44 24.97 0 1.59-0.12 4.11-0.35 7.57l-0.09 0.53 -2.47 3.61 -54.16 1.5c0.41 5.34 2.64 9.67 6.69 12.99 4.05 3.32 9.16 4.97 15.32 4.97 4.34 0 9.17-0.94 14.49-2.82C442.04 138.84 447.63 136.05 453.5 132.35zM400.84 113.6l34.43-1.06v-1.23c0-4.17-1.47-7.59-4.4-10.26 -2.94-2.67-6.63-4.01-11.1-4.01 -4.99 0-9.16 1.45-12.5 4.36C403.92 104.31 401.78 108.37 400.84 113.6z"/><path fill="#54A256" d="M500.35 160.71h-27.91V35.05l27.92-3.79V160.71z"/><path fill="#54A256" d="M521.13 198.93V81.36h27.56c2.76-1.06 5.49-1.83 8.19-2.33 2.7-0.5 5.46-0.75 8.28-0.75 11.45 0 20.88 3.96 28.31 11.89s11.14 18.14 11.14 30.65c0 12.98-4.01 23.47-12.02 31.48 -8.01 8.01-18.48 12.02-31.39 12.02 -1.7 0-3.52-0.1-5.46-0.31 -1.94-0.21-4.34-0.51-7.22-0.92v31.17L521.13 198.93zM548.69 142.48c1.94 0.53 3.61 0.91 5.02 1.15 1.41 0.24 2.7 0.35 3.88 0.35 5.34 0 9.8-2.2 13.39-6.6 3.58-4.4 5.37-9.98 5.37-16.73 0-6.28-1.63-11.48-4.89-15.59 -3.26-4.11-7.29-6.16-12.11-6.16 -1.47 0-3.02 0.16-4.67 0.48 -1.64 0.32-3.64 0.87-5.99 1.63V142.48z"/></svg>