<svg xmlns="http://www.w3.org/2000/svg" xmlns:xlink="http://www.w3.org/1999/xlink" version="1.1" id="Layer_1" x="0" y="0" width="222" height="210.5" viewBox="0 0 222 210.5" enable-background="new 0 0 222 210.5" xml:space="preserve"><polygon fill-rule="evenodd" clip-rule="evenodd" fill="#54A256" points="111.29 211.1 166.79 170.78 222.28 130.46 201.08 65.23 179.89 -0.01 111.29 -0.01 42.7 -0.01 21.5 65.23 0.31 130.46 55.8 170.78 "/><polygon fill-rule="evenodd" clip-rule="evenodd" fill="#54A256" points="111.29 211.1 166.79 170.78 222.28 130.46 201.08 65.23 179.89 -0.01 111.29 -0.01 42.7 -0.01 21.5 65.23 0.31 130.46 55.8 170.78 "/><polygon fill-rule="evenodd" clip-rule="evenodd" fill="#73B780" points="111.29 191.73 156.6 158.81 201.92 125.89 184.61 72.63 167.3 19.36 111.29 19.36 "/><path fill-rule="evenodd" clip-rule="evenodd" fill="#FFFFFF" d="M145.91 129.72v-17.48c2.67-0.8 5.01-2.43 7.01-4.91 2.97-3.64 4.44-8.28 4.44-13.87 0-5.21-1.35-9.53-4.04-12.95 -2.08-2.64-4.55-4.25-7.41-4.85V58.38c0.74-0.04 1.48-0.06 2.22-0.06 9.48 0 17.32 3.3 23.48 9.86 6.16 6.59 9.26 15.07 9.26 25.45 0 10.75-3.32 19.49-9.98 26.12C164.47 126.19 156.13 129.5 145.91 129.72zM115.91 94.74c2.9 4.55 4.35 9.82 4.35 15.83 0 6.63-1.45 12.46-4.35 17.46v29.71l18.4-3.13v-25.9c2.4 0.35 4.39 0.6 5.99 0.77 1.62 0.18 3.12 0.25 4.54 0.25 0.36 0 0.72 0 1.07-0.01v-17.48c-1.28 0.39-2.65 0.58-4.09 0.58 -0.97 0-2.04-0.1-3.22-0.3 -1.15-0.2-2.55-0.5-4.14-0.95V77.13c1.95-0.62 3.59-1.07 4.97-1.35 1.35-0.27 2.65-0.4 3.87-0.4 0.91 0 1.78 0.09 2.62 0.26V58.38c-1.58 0.09-3.13 0.27-4.67 0.56 -2.24 0.4-4.49 1.05-6.78 1.92h-18.55V94.74zM51.4 111.77c6.51 3.99 12.05 6.76 16.62 8.38 4.54 1.6 8.98 2.4 13.32 2.4 4.37 0 7.88-0.97 10.55-2.89 2.65-1.92 3.97-4.39 3.97-7.41 0-4.32-4.72-9.21-14.17-14.6 -1.52-0.87-2.69-1.57-3.52-2.04l-7.16-4.04c-6.96-3.94-12.13-8.41-15.47-13.37 -3.37-4.96-5.04-10.6-5.04-16.89 0-8.53 3.22-15.52 9.65-20.98 6.41-5.46 14.72-8.18 24.9-8.18 3.77 0 7.83 0.45 12.2 1.32 4.39 0.87 9.26 2.25 14.62 4.09v24.82c-5.12-3.19-9.95-5.66-14.55-7.41 -4.59-1.74-8.48-2.62-11.7-2.62 -3.57 0-6.36 0.77-8.41 2.3 -2.04 1.52-3.07 3.62-3.07 6.24 0 1.85 0.6 3.57 1.82 5.17 1.22 1.62 3.05 3.07 5.49 4.39l12.42 6.86c10.4 5.76 17.39 11.08 20.98 15.94 0.36 0.5 0.71 1 1.04 1.51V60.87h-4.35v97.6l4.35-0.74v-29.7c-1.61 2.79-3.68 5.32-6.2 7.59 -7.06 6.36-16.39 9.53-28.04 9.53 -3.94 0-8.23-0.42-12.87-1.25 -4.61-0.82-9.73-2.12-15.27-3.87L51.4 111.77z"/><defs><path id="SVGID_1_" d="M145.91 129.72v-17.48c2.67-0.8 5.01-2.43 7.01-4.91 2.97-3.64 4.44-8.28 4.44-13.87 0-5.21-1.35-9.53-4.04-12.95 -2.08-2.64-4.55-4.25-7.41-4.85V58.38c0.74-0.04 1.48-0.06 2.22-0.06 9.48 0 17.32 3.3 23.48 9.86 6.16 6.59 9.26 15.07 9.26 25.45 0 10.75-3.32 19.49-9.98 26.12C164.47 126.19 156.13 129.5 145.91 129.72zM115.91 94.74c2.9 4.55 4.35 9.82 4.35 15.83 0 6.63-1.45 12.46-4.35 17.46v29.71l18.4-3.13v-25.9c2.4 0.35 4.39 0.6 5.99 0.77 1.62 0.18 3.12 0.25 4.54 0.25 0.36 0 0.72 0 1.07-0.01v-17.48c-1.28 0.39-2.65 0.58-4.09 0.58 -0.97 0-2.04-0.1-3.22-0.3 -1.15-0.2-2.55-0.5-4.14-0.95V77.13c1.95-0.62 3.59-1.07 4.97-1.35 1.35-0.27 2.65-0.4 3.87-0.4 0.91 0 1.78 0.09 2.62 0.26V58.38c-1.58 0.09-3.13 0.27-4.67 0.56 -2.24 0.4-4.49 1.05-6.78 1.92h-18.55V94.74zM51.4 111.77c6.51 3.99 12.05 6.76 16.62 8.38 4.54 1.6 8.98 2.4 13.32 2.4 4.37 0 7.88-0.97 10.55-2.89 2.65-1.92 3.97-4.39 3.97-7.41 0-4.32-4.72-9.21-14.17-14.6 -1.52-0.87-2.69-1.57-3.52-2.04l-7.16-4.04c-6.96-3.94-12.13-8.41-15.47-13.37 -3.37-4.96-5.04-10.6-5.04-16.89 0-8.53 3.22-15.52 9.65-20.98 6.41-5.46 14.72-8.18 24.9-8.18 3.77 0 7.83 0.45 12.2 1.32 4.39 0.87 9.26 2.25 14.62 4.09v24.82c-5.12-3.19-9.95-5.66-14.55-7.41 -4.59-1.74-8.48-2.62-11.7-2.62 -3.57 0-6.36 0.77-8.41 2.3 -2.04 1.52-3.07 3.62-3.07 6.24 0 1.85 0.6 3.57 1.82 5.17 1.22 1.62 3.05 3.07 5.49 4.39l12.42 6.86c10.4 5.76 17.39 11.08 20.98 15.94 0.36 0.5 0.71 1 1.04 1.51V60.87h-4.35v97.6l4.35-0.74v-29.7c-1.61 2.79-3.68 5.32-6.2 7.59 -7.06 6.36-16.39 9.53-28.04 9.53 -3.94 0-8.23-0.42-12.87-1.25 -4.61-0.82-9.73-2.12-15.27-3.87L51.4 111.77z"/></defs><clipPath id="SVGID_2_"><use xlink:href="#SVGID_1_" overflow="visible"/></clipPath><g clip-path="url(#SVGID_2_)"><polygon fill-rule="evenodd" clip-rule="evenodd" fill="#E6E6E7" points="111.7 182.76 70.61 152.9 29.51 123.04 45.21 74.74 60.91 26.43 111.7 26.43 "/></g></svg>