<svg xmlns="http://www.w3.org/2000/svg" xmlns:xlink="http://www.w3.org/1999/xlink" version="1.1" id="Layer_1" x="0" y="0" width="308" height="306" viewBox="24.5 72.62 308 306" enable-background="new 24.5 72.618 308 306" xml:space="preserve">
  <path id="FundoBoia" fill="#125E4A" d="M98.41 264.47l-35.24 35.24 -10.69-10.69c-34.99-34.99-34.99-91.72 0-126.71l10.69-10.69 35.24 35.24C86.66 211.32 86.66 240.01 98.41 264.47zM179.14 136.08V72.72c-23.41 0-45.84 8.75-63.33 26.24L105.13 109.65l35.22 35.24C152.58 139.02 166.7 136.08 179.14 136.08zM140.36 306.45l-35.23 35.24 10.68 10.69c17.49 17.49 39.93 26.24 63.34 26.24v-63.36C166.7 315.26 152.59 312.32 140.36 306.45zM217.97 144.89l35.25-35.24 -10.71-10.69c-17.49-17.49-40.69-26.24-63.37-26.24v63.36C191.58 136.08 205.74 139.02 217.97 144.89zM253.23 341.68l-35.26-35.24c-12.23 5.88-26.39 8.81-38.83 8.81v63.36c22.68 0 45.88-8.75 63.38-26.24L253.23 341.68zM259.96 264.47l35.24 35.24 10.69-10.69c34.99-34.99 34.99-91.72 0-126.71l-10.69-10.69 -35.24 35.24C271.71 211.32 271.71 240.01 259.96 264.47z"/>
  <path id="EfeiteBoia" fill="#AFDFAA" d="M140.38 306.45l-35.24 35.24L63.17 299.71l35.24-35.24c4.26 8.87 10.07 17.19 17.42 24.55C123.19 296.38 131.51 302.18 140.38 306.45zM115.83 162.31c7.36-7.35 15.68-13.16 24.55-17.42l-35.24-35.24 -41.97 41.97 35.24 35.24C102.67 177.99 108.47 169.67 115.83 162.31zM242.54 162.31c7.36 7.36 13.16 15.68 17.42 24.55l35.24-35.24 -12.9-12.9 -20.62-20.62 -8.45-8.45 -35.24 35.24C226.86 149.15 235.18 154.96 242.54 162.31zM242.54 289.02c-7.35 7.36-15.68 13.16-24.55 17.42l35.24 35.24 41.97-41.97 -35.24-35.24C255.7 273.35 249.9 281.67 242.54 289.02z"/>
  <path id="Transparencia" opacity="0.1" fill="#FFFFFF" enable-background="new    " d="M179.14 136.08V72.72c22.68 0 45.88 8.75 63.38 26.24l10.7 10.69 -35.26 35.24C205.73 139.02 191.58 136.08 179.14 136.08zM253.23 341.68l-35.26-35.24c-12.23 5.88-26.39 8.81-38.83 8.81v63.36c22.68 0 45.88-8.75 63.38-26.24L253.23 341.68zM259.96 264.47l35.24 35.24 10.69-10.69c34.99-34.99 34.99-91.72 0-126.71l-10.69-10.69 -35.24 35.24C271.71 211.32 271.71 240.01 259.96 264.47zM242.54 162.31c7.36 7.36 13.16 15.68 17.42 24.55l35.24-35.24 -12.9-12.9 -20.62-20.62 -8.45-8.45 -35.24 35.24C226.86 149.15 235.18 154.96 242.54 162.31zM242.54 289.02c-7.35 7.36-15.68 13.16-24.55 17.42l35.24 35.24 41.97-41.97 -35.24-35.24C255.7 273.35 249.9 281.67 242.54 289.02z"/>
  <path fill="#125E4A" d="M107.23 246.16c5.9 3.55 10.92 6.03 15.04 7.46 4.12 1.43 8.14 2.14 12.06 2.14 3.97 0 7.15-0.85 9.56-2.56 2.4-1.71 3.6-3.9 3.6-6.58 0-3.85-4.32-8.16-12.83-12.97 -1.36-0.77-2.42-1.38-3.17-1.81 -2.59-1.43-3.89-2.14-6.48-3.57 -6.3-3.5-10.97-7.45-14.01-11.86 -3.04-4.41-4.53-9.44-4.56-14.98 -0.05-7.19 3.14-14.04 8.72-18.61 6.29-5.15 14.52-7.31 22.54-7.26 3.38 0.02 7.25 0.39 11.22 1.17 3.97 0.78 8.27 1.99 13.4 3.63 0 7.35 0 14.7 0 22.05 -5.12-2.85-9.19-5.06-13.33-6.61 -4.14-1.56-7.76-2.34-10.67-2.34 -3.22 0-5.8 0.68-7.65 2.05 -1.85 1.36-2.8 3.21-2.8 5.55 0 1.64 0.54 3.18 1.64 4.6 1.1 1.43 2.75 2.73 4.95 3.89 4.5 2.44 6.74 3.65 11.24 6.09 6.86 3.64 14.19 8 18.94 14.13 3.25 4.21 4.82 9.48 4.86 15.36 0.05 8.39-3.16 16.61-9.55 22.21 -6.95 6.09-16.3 8.52-25.36 8.46 -3.55-0.02-7.45-0.37-11.63-1.1 -4.19-0.73-8.79-1.88-13.81-3.44C108.51 262.88 107.87 254.52 107.23 246.16z"/>
  <path fill="#125E4A" d="M186.46 272.49c0-30.73 0-62.19 0-93.65 8.05 0 16.13 0 24.35 0 7.58 0 13.6 0.48 18.05 1.56 4.45 1.08 8.4 2.92 11.83 5.42 3.51 2.56 6.33 5.72 8.29 9.55 1.96 3.83 2.91 7.9 2.94 12.15 0.06 8.69-3.45 17.14-10.34 22.62 -8.28 6.57-18.17 8.05-28.06 8.36 -1.19 0.04-2.1-0.01-2.72-0.03 -0.62-0.02-0.93-0.05-1.66-0.1 0 11.46 0 23.14 0 34.12C201.09 272.49 193.78 272.49 186.46 272.49zM212.13 195.67c-1.24 0-1.53 0-2.99 0 0 8.78 0 16.83 0 25.61 1.46 0 2.38 0 4.05 0 5.78 0 10.18-1.2 13.23-3.38 3.04-2.18 4.56-5.38 4.56-9.48 0-4.28-1.5-7.59-4.5-9.58C223.48 196.84 218.7 195.67 212.13 195.67z"/>
  <rect x="185" y="178.11" opacity="0.13" fill="#FFFFFF" enable-background="new    " width="68.77" height="96.58"/>
</svg>
